<svg id="Layer_1" data-name="Layer 1" xmlns="http://www.w3.org/2000/svg" viewBox="0 0 167 166"><defs><style>.cls-1{opacity:0.68;}.cls-2{fill:#e44699;}.cls-3{fill:#eba8cb;}</style></defs><g class="cls-1"><path class="cls-2" d="M392.91,345.56a2,2,0,0,1-.39,1.89L375,368.26a2.07,2.07,0,0,1-.47.41l-12,7.61,7.94,6.55a2,2,0,0,1,.65,2.13,2,2,0,0,1-1.74,1.43L337.05,390a2.17,2.17,0,0,1-.76,0l-5.57-1.42-13.56,25.35a2.09,2.09,0,0,1-2.76.87L289.2,402.3a1.9,1.9,0,0,1-.55-.39L263.9,377.13l-17.82-10.78a2,2,0,0,1-.85-1l-5.84-14.94L227,343.23a2,2,0,0,1-1-1.91l2.12-24.44a2.25,2.25,0,0,1,.06-.36l6.37-22.62a3.12,3.12,0,0,1,.15-.39l19.37-36.91a2.08,2.08,0,0,1,2.55-1l14.44,5.19,8.11-11a2.07,2.07,0,0,1,1.67-.84h13.26a2.14,2.14,0,0,1,1.05.28L311,258.46l46.05,8.25a2,2,0,0,1,1.68,2.28l-1.44,9.86,7.77,6.94,14.26,2.49A2,2,0,0,1,381,290.5l-1.77,15.66,2,3a1.86,1.86,0,0,1,.24.49Zm-4.29.16-11-34.56-1.69-2.58L363,314.8l-2,6a1.24,1.24,0,0,1-.95.83l-14.44,2.68-1.5,22.9,4.76,8.84,14.93,12.33-1.59,1.86-13.95-11.51-10.16,18.69a1.26,1.26,0,0,1-.7.58L313,386l3.5,17.4-2.43.47L310.4,385.4a1.22,1.22,0,0,1,.82-1.39l25-8.17,10.33-19L341.82,348a1.34,1.34,0,0,1-.14-.65l1.59-24.17a1.22,1.22,0,0,1,1-1.12l14.66-2.73,1.9-5.81a1.19,1.19,0,0,1,.63-.71l13.63-6.57,1.5-13.22c-9.32,1.94-18.89,4.09-20.77,4.81-.57,1.12-2.35,3.84-7.93,11.33a1.22,1.22,0,0,1-.34.3l-51.08,32-9.15,28.18-2.36-.74,8.11-25-6.2,4.55-20.31,16.42a1.26,1.26,0,0,1-1.71-.13l-9.29-10.2-3.89.05a1.26,1.26,0,0,1-1.22-.94l-4.24-18.2,2.41-.54,4,17.24,17.83-.25,0,2.43-11.66.16,7.06,7.76,19.43-15.71,9.34-6.87h0l.07-.06L346,307.58c3.4-4.57,7.05-9.68,7.58-10.75.08-1,1.25-1.73,19.47-5.53l-9.31-1.63a2,2,0,0,1-1-.5l-27.46,5.14-61.53,16.82L251.7,330.44a1,1,0,0,1-.24.16l-6.13,3.21-13.89,7.28,10.67,6.19a2.08,2.08,0,0,1,.88,1l5.85,15,17.44,10.56a1.72,1.72,0,0,1,.39.31l24.69,24.71,23.07,11.43,3.33-6.24,10.05-18.78a2.07,2.07,0,0,1,2.35-1l.83.21,26.19-9a2,2,0,0,1,.79-1.06l4.94-3.14,9.11-5.79ZM337,386l27.22-3.07-6.25-5.15-22.63,7.79Zm-2.24-94,25.74-4.82-6.74-6a1.87,1.87,0,0,1-.4-.49,2,2,0,0,1-.25-1.29l1.32-9-44.47-8a2.06,2.06,0,0,1-.68-.25l-15.7-9.08H281.9l-7.47,10.13,26.88,13.43,24.4-4.68.23,0a1.23,1.23,0,0,1,.42.07l26.25,9.1-.82,2.29-25.94-9-21,4,8.62,4.31a1.23,1.23,0,0,1,.67,1,1.2,1.2,0,0,1-.54,1.08l-33.47,22.07ZM272.46,309l38.05-25.1-37.8-18.88a2.11,2.11,0,0,1-1.6.1l-14.19-5.1-18.44,35.13-6.25,22.23-1.87,21.5,19.8-10.38Z" transform="translate(-226 -249)"/><path class="cls-3" d="M377.63,311.16l11,34.56L372,365.44l-9.11,5.79-.63-1,1.59-1.86-14.93-12.33-4.76-8.84,1.5-22.9,14.44-2.68a1.24,1.24,0,0,0,.95-.83l2-6,12.91-6.22Z" transform="translate(-226 -249)"/><path class="cls-3" d="M376.6,293.06l-1.5,13.22-13.63,6.57a1.19,1.19,0,0,0-.63.71l-1.9,5.81-14.66,2.73a1.22,1.22,0,0,0-1,1.12l-1.59,24.17a1.34,1.34,0,0,0,.14.65l4.73,8.78-10.33,19-25,8.17a1.22,1.22,0,0,0-.82,1.39l3.71,18.45,2.43-.47,1.22.65-3.33,6.24-23.07-11.43-24.69-24.71a1.72,1.72,0,0,0-.39-.31l-17.44-10.56-5.85-15a2.08,2.08,0,0,0-.88-1l-10.67-6.19,13.89-7.28.89,1.71,4.24,18.2a1.26,1.26,0,0,0,1.22.94l3.89-.05,9.29,10.2a1.26,1.26,0,0,0,1.71.13l20.31-16.42,6.2-4.55-8.11,25,2.36.74,9.15-28.18,51.08-32a1.22,1.22,0,0,0,.34-.3c5.58-7.49,7.36-10.21,7.93-11.33C357.71,297.15,367.28,295,376.6,293.06Zm-74.84,79.21,6-16.6-2.34-.81-6.1,16.9a1.23,1.23,0,0,0-.05.63l2.12,11.18,2.44-.45Z" transform="translate(-226 -249)"/><path class="cls-3" d="M363.77,289.67l9.31,1.63c-18.22,3.8-19.39,4.53-19.47,5.53-.53,1.07-4.18,6.18-7.58,10.75l-51.26,32.11-.07.06h0l-9.34,6.87-19.43,15.71-7.06-7.76,11.66-.16,0-2.43-17.83.25-4-17.24-2.41.54-.89-1.71,6.13-3.21a1,1,0,0,0,.24-.16l22.06-19.31,61.53-16.82,27.46-5.14A2,2,0,0,0,363.77,289.67Z" transform="translate(-226 -249)"/><polygon class="cls-3" points="138.18 133.9 110.96 136.97 109.3 136.54 131.93 128.75 138.18 133.9"/><path class="cls-3" d="M362.28,370.24l.63,1L358,374.37a2,2,0,0,0-.79,1.06l-26.19,9-.83-.21a2.07,2.07,0,0,0-2.35,1L317.76,404l-1.22-.65L313,386l24.43-8a1.26,1.26,0,0,0,.7-.58l10.16-18.69Z" transform="translate(-226 -249)"/><path class="cls-3" d="M360.46,287.13,334.72,292l-54.55,14.91,33.47-22.07a1.2,1.2,0,0,0,.54-1.08,1.23,1.23,0,0,0-.67-1l-8.62-4.31,21-4,25.94,9,.82-2.29.71-.45a1.87,1.87,0,0,0,.4.49Z" transform="translate(-226 -249)"/><path class="cls-3" d="M354.39,270.34l-1.32,9a2,2,0,0,0,.25,1.29l-.71.45L326.36,272a1.23,1.23,0,0,0-.42-.07l-.23,0-24.4,4.68-26.88-13.43,7.47-10.13h11.64l15.7,9.08a2.06,2.06,0,0,0,.68.25Z" transform="translate(-226 -249)"/><path class="cls-3" d="M310.51,283.93,272.46,309l-22.3,19.5-19.8,10.38,1.87-21.5,6.25-22.23,18.44-35.13,14.19,5.1a2.11,2.11,0,0,0,1.6-.1Z" transform="translate(-226 -249)"/><path class="cls-2" d="M307.75,355.67l-6,16.6,2.06,10.85-2.44.45-2.12-11.18a1.23,1.23,0,0,1,.05-.63l6.1-16.9Z" transform="translate(-226 -249)"/></g></svg>