<?xml version="1.0" encoding="utf-8"?>
<!-- Generator: Adobe Illustrator 16.0.0, SVG Export Plug-In . SVG Version: 6.00 Build 0)  -->
<!DOCTYPE svg PUBLIC "-//W3C//DTD SVG 1.1//EN" "http://www.w3.org/Graphics/SVG/1.1/DTD/svg11.dtd">
<svg version="1.1" id="Layer_1" xmlns="http://www.w3.org/2000/svg" xmlns:xlink="http://www.w3.org/1999/xlink" x="0px" y="0px"
	 width="53.608px" height="30.729px" viewBox="0 0 53.608 30.729" enable-background="new 0 0 53.608 30.729" xml:space="preserve">
<path d="M3.931,7.915c1.799,0,3.569,0.051,5.336-0.032c0.545-0.041,1.055-0.286,1.427-0.686c7.908-9.602,23.725-9.594,31.657,0.016
	c0.377,0.393,0.887,0.632,1.43,0.672c1.508,0.085,3.021,0.029,4.734,0.029V22.91c-1.459,0-3.09-0.051-4.713,0.031
	c-0.551,0.031-1.07,0.266-1.457,0.659c-4.418,5.355-10.236,7.394-16.963,7.102c-5.928-0.269-10.979-2.472-14.778-7.2
	c-0.268-0.344-0.895-0.536-1.363-0.565c-1.733-0.067-3.481-0.026-5.31-0.026V7.915z"/>
<rect y="7.636" width="53.608" height="15.276"/>
</svg>
