<svg xmlns="http://www.w3.org/2000/svg" viewBox="0 0 231.86 373.81"><defs><style>.cls-1{fill:#242021;}.cls-2{fill:#fdfdfd;}.cls-3{opacity:0.68;}.cls-4{fill:#007f76;}.cls-5{fill:#87cfc0;}.cls-6{fill:#faa223;}.cls-7{fill:#ffdc8a;}.cls-8{fill:#fed20d;}.cls-9{fill:#f5f2a2;}.cls-10{fill:#422f90;}.cls-11{fill:#8f90c7;}.cls-12{fill:#e44699;}.cls-13{fill:#eba8cb;}.cls-14{fill:#74c3e0;}.cls-15{fill:#52c9ed;}.cls-16{fill:#00aedd;}.cls-17{font-size:29.85px;fill:#fff;font-family:ChalkboardSE-Regular, Chalkboard SE;}.cls-18{letter-spacing:-0.01em;}.cls-19{letter-spacing:-0.04em;}</style></defs><g id="Layer_1" data-name="Layer 1"><path class="cls-1" d="M221.67,235.42c-3-3.73-5.45-7.3-1.56-11.65a2.31,2.31,0,0,0,.57-1.85c-2.42-6.5.63-13.14-.78-19.78-1.91-9,1.16-12.63,10-15,26-7,52.63-6.7,79.14-7.17,31.07-.54,62.1.75,92.85,5.85,1,.16,1.94.42,2.91.63,16.17,3.5,16.13,3.5,15.72,20.33-.16,6.91-1.49,13.87,2.23,20.49,1.79,3.19-.69,5.6-3.08,7.3-.37,1.46.61,2.08,1.2,2.8,2.79,3.37,3.68,6.07-.58,9.5-5.59,4.52-5.32,12.39-.07,19,4.2,5.31,8.81,10.24,12.22,16.21A38.49,38.49,0,0,1,437.71,301c.83,47.16.79,94.3-2.25,141.4-1,15.82-2.3,31.63-3.17,47.46-.67,12.32-6.86,22.13-14,31.31-14.85,19-33.74,31-58.55,32-15.44.59-30.9.61-46.34.2-13.59-.36-27.26.52-40.73-2.22-29.33-6-50.74-21.77-61.94-50.22-2.47-6.27-3-12.85-3.09-19.53-.81-58.14-2.49-116.27,0-174.42.44-10.36,5.24-18.82,9.29-27.73,2.47-5.46,5.42-10.71,7.63-16.27,2.08-5.22,1.63-10-2.84-14.49C216.63,243.43,216.93,241.22,221.67,235.42ZM416,258.78c-2.46-5.33-6.17-4.85-10.21-4.1-8.64,1.59-17.28,3.77-26,4.26-47.46,2.68-94.93,4.05-142.23-2.49-4.31-.59-6.07,1.07-7.95,4.64-3.91,7.44-7.29,15.17-11.4,22.48-4.58,8.17-7.92,16.55-8,26-.08,5.48.16,11,.11,16.44-.41,53.33-.79,106.65.83,160a43.08,43.08,0,0,0,4.74,19c13.64,26.4,35,41.25,64.66,43.69,26.69,2.21,53.45,1.8,80.19,1.13A53.84,53.84,0,0,0,377.72,547c15.43-5.6,28.62-14.47,38.18-28.08,5.9-8.41,11.66-16.82,12.82-27.65,3-28,3.85-56.18,4.95-84.3,1.39-35.63,2.24-71.29.65-106.95a36.82,36.82,0,0,0-5.11-17c-3.93-6.85-10.22-11.81-14-18.73C414.08,262.2,413,260.23,416,258.78ZM231.48,248.67a22.49,22.49,0,0,0,2,1c9.36,3.83,19.21,4.79,29.18,5.51,42.31,3,84.6,3.15,126.78-1.54,7.18-.79,14.65-1.93,21.24-6-15.07,1.5-30.08,3-45.2,2.18,3.57-1.73,7.52-1.64,11.14-1.8,3.93-.18,7.09-2.4,10.93-2.47s7.56-.56,10.34-3.86c-54.73,5.47-109.35,4.5-164-.24,14.65,6.27,30.39,5.77,45.67,8.07C263.56,250.21,247.64,249,231.48,248.67Zm0-19.78c21,7.7,83,12.33,93.06,6.93C293.28,233.43,262.32,232.11,231.49,228.89ZM328,229c10.81,4.11,65.61,3,71.09-1.4C395.52,225.5,334.45,226.7,328,229Zm-86.92-11.55c13.52,7.92,71.07,10.51,82.53,3.61-13.67-.48-27.36,0-41-.62C268.77,219.75,254.86,219.56,241.09,217.43Zm168.51-2.26c-3.4-1.25-61,2.81-64.86,5C367.42,222.91,388.59,223.57,409.6,215.17ZM293,201.62H259.47C270.55,203.66,281.76,202.27,293,201.62Zm96.3,1.12-.05-1.63c-8,.26-16-1.07-23.92,1.63Z" transform="translate(-206.31 -179.85)"/><path class="cls-2" d="M416,258.78c-3,1.45-1.88,3.42-.72,5.56,3.75,6.92,10,11.88,14,18.73a36.82,36.82,0,0,1,5.11,17c1.59,35.66.74,71.32-.65,107-1.1,28.12-2,56.27-4.95,84.3-1.16,10.83-6.92,19.24-12.82,27.65-9.56,13.61-22.75,22.48-38.18,28.08a53.84,53.84,0,0,1-17.08,2.73c-26.74.67-53.5,1.08-80.19-1.13-29.64-2.44-51-17.29-64.66-43.69a43.08,43.08,0,0,1-4.74-19c-1.62-53.32-1.24-106.64-.83-160,.05-5.48-.19-11-.11-16.44.13-9.44,3.47-17.82,8-26,4.11-7.31,7.49-15,11.4-22.48,1.88-3.57,3.64-5.23,7.95-4.64,47.3,6.54,94.77,5.17,142.23,2.49,8.73-.49,17.37-2.67,26-4.26C409.79,253.93,413.5,253.45,416,258.78ZM255,528c-2.61.18-3.09-1.79-4-3.61a24,24,0,0,1,9.3-4c13.41-2.16,26.68-5.29,40.39-5.4,24.57-.2,49.13-.66,73.69-1.08,1.62,0,3.6.65,5.1-1.59a40.68,40.68,0,0,0-12.82-2.11c-23.06-.95-46.17-1.45-69.18.19-15.62,1.11-31.46,2.32-46.28,8.43-2.74,1.14-6.12,2.2-5,6,1,3.45,5.25,4.58,8.83,3l-.15-.08ZM406.55,341.89a84.53,84.53,0,0,0-8.48,0c-8,.88-13.7-1.34-19.55-7.87-13.42-15-31.59-21.11-51.35-21.51-24.42-.51-45.71,7.08-61.45,26.87a6,6,0,0,1-5.46,2.52c-6.59-.15-13.19-.05-20-.05v56.17c6.84,0,13.44,0,20,0,1.82,0,3.43,0,4.82,1.75,14,18,33,26.41,55.19,27.38,25,1.09,46.76-6.5,63-26.58a6.13,6.13,0,0,1,5.46-2.6c6.08.16,12.17.06,18.79.06C406.25,379,406.61,360.76,406.55,341.89ZM320.64,536.67c-20.67-3.9-41.67-4.59-62.48-7.11C278.7,534.56,299.48,537.42,320.64,536.67Z" transform="translate(-206.31 -179.85)"/><path class="cls-2" d="M231.48,248.67c16.16.33,32.08,1.54,48.09.88-15.28-2.3-31-1.8-45.67-8.07,54.65,4.74,109.27,5.71,164,.24-2.78,3.3-6.63,3.78-10.34,3.86s-7,2.29-10.93,2.47c-3.62.16-7.57.07-11.14,1.8,15.12.83,30.13-.68,45.2-2.18-6.59,4.08-14.06,5.22-21.24,6-42.18,4.69-84.47,4.56-126.78,1.54-10-.72-19.82-1.68-29.18-5.51A22.49,22.49,0,0,1,231.48,248.67Zm108.31,2.22h23.35C355.48,249.88,347.83,249.33,339.79,250.89Z" transform="translate(-206.31 -179.85)"/><path class="cls-2" d="M231.49,228.89c30.83,3.22,61.79,4.54,93.06,6.93C314.52,241.22,252.48,236.59,231.49,228.89Z" transform="translate(-206.31 -179.85)"/><path class="cls-2" d="M328,229c6.44-2.28,67.51-3.48,71.09-1.4C393.62,232,338.82,233.09,328,229Z" transform="translate(-206.31 -179.85)"/><path class="cls-2" d="M241.09,217.43c13.77,2.13,27.68,2.32,41.53,3,13.64.65,27.33.14,41,.62C312.16,227.94,254.61,225.35,241.09,217.43Z" transform="translate(-206.31 -179.85)"/><path class="cls-2" d="M409.6,215.17c-21,8.4-42.18,7.74-64.86,5C348.63,218,406.2,213.92,409.6,215.17Z" transform="translate(-206.31 -179.85)"/><path class="cls-2" d="M293,201.62c-11.27.65-22.48,2-33.56,0Z" transform="translate(-206.31 -179.85)"/><path class="cls-2" d="M389.33,202.74h-24c7.88-2.7,15.93-1.37,23.92-1.63Z" transform="translate(-206.31 -179.85)"/><path class="cls-1" d="M255.05,527.84c-3.59,1.57-7.82.44-8.84-3-1.14-3.84,2.24-4.9,5-6,14.82-6.11,30.66-7.32,46.28-8.43,23-1.64,46.12-1.14,69.18-.19a40.68,40.68,0,0,1,12.82,2.11c-1.5,2.24-3.48,1.56-5.1,1.59-24.56.42-49.12.88-73.69,1.08-13.71.11-27,3.24-40.39,5.4a24,24,0,0,0-9.3,4c.88,1.82,1.36,3.79,4,3.61Z" transform="translate(-206.31 -179.85)"/><path class="cls-1" d="M320.64,536.67c-21.16.75-41.94-2.11-62.48-7.11C279,532.08,300,532.77,320.64,536.67Z" transform="translate(-206.31 -179.85)"/><path class="cls-1" d="M255,528l-.07-.2a.77.77,0,0,0,.16.07Z" transform="translate(-206.31 -179.85)"/><path class="cls-1" d="M339.79,250.89c8-1.56,15.69-1,23.35,0Z" transform="translate(-206.31 -179.85)"/></g><g id="Layer_2" data-name="Layer 2"><g class="cls-3"><path class="cls-4" d="M336.88,421.53a1,1,0,0,1,.22-1L347,409.88a1.39,1.39,0,0,1,.27-.21l6.78-3.91-4.49-3.36a1,1,0,0,1-.36-1.09,1.11,1.11,0,0,1,1-.74l18.26-1.85a1.55,1.55,0,0,1,.43,0l3.14.73,7.66-13a1.24,1.24,0,0,1,1.56-.44l14.23,6.41a1.1,1.1,0,0,1,.31.2l14,12.73,10.07,5.53a1.18,1.18,0,0,1,.48.51l3.29,7.67,7,3.69a1,1,0,0,1,.57,1L430,436.26l0,.18-3.6,11.61a1.21,1.21,0,0,1-.09.2L415.29,467.2a1.22,1.22,0,0,1-1.44.52l-8.15-2.67-4.58,5.65a1.22,1.22,0,0,1-.95.43h-7.49a1.35,1.35,0,0,1-.59-.14l-8.95-4.74-26-4.24a1,1,0,0,1-.95-1.17h0l.82-5.06-4.39-3.56-8.06-1.28a1,1,0,0,1-.94-1.14l1-8-1.12-1.54a.89.89,0,0,1-.14-.25Zm2.42-.08,6.21,17.74,1,1.33,7.3-3.2,1.13-3.08a.68.68,0,0,1,.54-.42l8.15-1.38.85-11.75-2.69-4.54-8.43-6.33.9-1,7.88,5.91,5.73-9.59a.72.72,0,0,1,.4-.3L382,400.77l-2-8.93,1.38-.24,2.07,9.48a.62.62,0,0,1-.46.71L368.9,406l-5.84,9.75,2.67,4.54a.56.56,0,0,1,.08.33l-.9,12.41a.65.65,0,0,1-.56.58l-8.28,1.4L355,438a.68.68,0,0,1-.36.37l-7.7,3.37-.84,6.78c5.26-1,10.66-2.09,11.73-2.46a56,56,0,0,1,4.47-5.82.75.75,0,0,1,.2-.15l28.85-16.43,5.16-14.47,1.34.38-4.58,12.83,3.5-2.33,11.47-8.43a.76.76,0,0,1,1,.07l5.25,5.23,2.2,0a.7.7,0,0,1,.69.48l2.39,9.34-1.36.28-2.26-8.85-10.07.13V417l6.59-.08-4-4-11,8.07-5.28,3.53h0l0,0-29,16.44c-1.92,2.35-4,5-4.28,5.52,0,.51-.7.89-11,2.84l5.25.83a1.29,1.29,0,0,1,.57.26l15.51-2.64,34.75-8.63,12.45-9.92.14-.08,3.46-1.65,7.84-3.73-6-3.18a1.12,1.12,0,0,1-.5-.51l-3.3-7.7L408.4,407a.86.86,0,0,1-.22-.15l-13.95-12.69-13-5.87-1.88,3.21-5.67,9.64a1.21,1.21,0,0,1-1.33.51l-.47-.11-14.79,4.62a1.1,1.1,0,0,1-.45.55l-2.79,1.61-5.14,3Zm29.16-20.68-15.38,1.58,3.53,2.64,12.78-4ZM369.72,449l-14.54,2.47,3.81,3.08a1.09,1.09,0,0,1,.23.25,1,1,0,0,1,.14.67l-.75,4.62,25.12,4.1a1.71,1.71,0,0,1,.38.13L393,469h6.59l4.22-5.2-15.18-6.89-13.78,2.4h-.13l-.24,0-14.82-4.68.46-1.17,14.65,4.62L386.61,456l-4.87-2.22a.63.63,0,0,1-.37-.51.61.61,0,0,1,.3-.56l18.9-11.33Zm35.19-8.73-21.49,12.89,21.35,9.69a1.27,1.27,0,0,1,.9-.05l8,2.62,10.42-18L427.63,436l1.05-11-11.18,5.33Z" transform="translate(-206.31 -179.85)"/><path class="cls-5" d="M345.51,439.19l-6.21-17.74,9.39-10.12,5.14-3,.36.52-.9.95,8.43,6.33,2.69,4.54-.85,11.76-8.15,1.37a.71.71,0,0,0-.54.43l-1.13,3.08-7.29,3.19Z" transform="translate(-206.31 -179.85)"/><path class="cls-5" d="M346.09,448.48l.85-6.78,7.7-3.38A.65.65,0,0,0,355,438l1.07-3,8.28-1.4a.67.67,0,0,0,.57-.58l.9-12.41a.76.76,0,0,0-.08-.33l-2.67-4.51,5.83-9.75L383,401.8a.61.61,0,0,0,.46-.71l-2.09-9.47-1.37.24-.69-.33,1.88-3.21,13,5.87,13.94,12.69.22.16,9.85,5.42,3.31,7.7a1.1,1.1,0,0,0,.49.51l6,3.18-7.85,3.74-.5-.88-2.39-9.35a.72.72,0,0,0-.69-.48l-2.2,0-5.25-5.24a.76.76,0,0,0-1-.07L396.76,420l-3.5,2.34,4.58-12.83-1.34-.38-5.17,14.46-28.84,16.43a.75.75,0,0,0-.2.15,62,62,0,0,0-4.48,5.82C356.76,446.38,351.35,447.49,346.09,448.48Zm42.27-40.66L385,416.34l1.32.42,3.45-8.68a.5.5,0,0,0,0-.32L388.57,402l-1.38.23Z" transform="translate(-206.31 -179.85)"/><path class="cls-5" d="M353.34,450.22l-5.26-.83c10.29-1.95,10.95-2.33,11-2.84.3-.55,2.37-3.17,4.29-5.52l28.95-16.48,0,0h0l5.27-3.53,11-8.07,4,4L406,417v1.25l10.07-.13,2.26,8.85,1.36-.28.5.88-3.46,1.65-.14.08-12.46,9.91-34.75,8.64-15.51,2.64A1.15,1.15,0,0,0,353.34,450.22Z" transform="translate(-206.31 -179.85)"/><polygon class="cls-5" points="146.8 222.52 162.17 220.94 163.11 221.16 150.33 225.16 146.8 222.52"/><path class="cls-5" d="M354.18,408.86l-.36-.51,2.78-1.61a1.06,1.06,0,0,0,.44-.54l14.79-4.62.47.11a1.23,1.23,0,0,0,1.33-.52l5.69-9.64.69.34,2,8.9-13.8,4.11a.66.66,0,0,0-.39.3l-5.74,9.59Z" transform="translate(-206.31 -179.85)"/><path class="cls-5" d="M355.21,451.53l14.53-2.5,30.81-7.66-18.9,11.33a.62.62,0,0,0-.31.56.64.64,0,0,0,.38.51l4.87,2.21L374.73,458l-14.65-4.62-.46,1.17-.4.23a1.09,1.09,0,0,0-.23-.25Z" transform="translate(-206.31 -179.85)"/><path class="cls-5" d="M358.63,460.15l.75-4.62a.91.91,0,0,0-.14-.66l.4-.24,14.82,4.67.24,0h.13l13.78-2.4,15.18,6.89-4.21,5.2H393l-8.87-4.66a1.42,1.42,0,0,0-.38-.13Z" transform="translate(-206.31 -179.85)"/><path class="cls-5" d="M383.42,453.17l21.49-12.87,12.59-10L428.68,425l-1.05,11-3.53,11.41-10.42,18-8-2.62a1.27,1.27,0,0,0-.9.05Z" transform="translate(-206.31 -179.85)"/><path class="cls-4" d="M385,416.34l3.38-8.52-1.16-5.57,1.38-.23,1.2,5.74a.58.58,0,0,1,0,.32l-3.45,8.68Z" transform="translate(-206.31 -179.85)"/></g><g class="cls-3"><path class="cls-6" d="M330.16,346.22a1.15,1.15,0,0,0,.23,1.12l10.44,12.3a.92.92,0,0,0,.28.24l7.15,4.5-4.73,3.88a1.17,1.17,0,0,0-.39,1.26,1.19,1.19,0,0,0,1,.84l19.26,2.14a1.77,1.77,0,0,0,.46,0l3.32-.84,8.08,15a1.24,1.24,0,0,0,1.64.51l15-7.39a1,1,0,0,0,.33-.23L407,364.89l10.62-6.38a1.18,1.18,0,0,0,.51-.59l3.48-8.83,7.38-4.25a1.17,1.17,0,0,0,.6-1.13l-1.26-14.45a1.43,1.43,0,0,0,0-.22l-3.8-13.37a.92.92,0,0,0-.09-.23l-11.54-21.83a1.23,1.23,0,0,0-1.52-.59l-8.6,3.07-4.84-6.51a1.24,1.24,0,0,0-1-.5H389a1.38,1.38,0,0,0-.63.17L379,294.71l-27.45,4.88a1.18,1.18,0,0,0-1,1.34h0l.86,5.83-4.63,4.1-8.5,1.47a1.19,1.19,0,0,0-1,1.32l1.06,9.26-1.19,1.77a1.14,1.14,0,0,0-.15.29Zm2.55.09,6.56-20.44,1-1.52L348,328l1.19,3.54a.74.74,0,0,0,.57.5l8.6,1.58.9,13.54-2.84,5.23-8.9,7.29.95,1.1,8.31-6.8,6.06,11.05a.76.76,0,0,0,.41.34l14.54,4.73-2.08,10.29,1.45.28,2.18-10.92a.72.72,0,0,0-.48-.82l-14.9-4.84-6.16-11.23,2.82-5.23a.73.73,0,0,0,.08-.38l-.94-14.3a.73.73,0,0,0-.6-.66l-8.74-1.61-1.13-3.44a.67.67,0,0,0-.37-.42L340.77,323l-.89-7.81c5.55,1.14,11.26,2.42,12.38,2.84a68.28,68.28,0,0,0,4.72,6.7.91.91,0,0,0,.21.18l30.44,18.92,5.45,16.67,1.4-.44-4.83-14.78,3.7,2.69,12.1,9.71a.76.76,0,0,0,1-.08l5.53-6,2.32,0a.76.76,0,0,0,.73-.56l2.53-10.76-1.44-.32-2.38,10.19L403.13,350v1.43l6.95.1-4.21,4.59-11.58-9.29-5.56-4.07h0l0,0-30.58-18.94c-2-2.71-4.2-5.73-4.52-6.36,0-.59-.74-1-11.6-3.27l5.55-1a1.28,1.28,0,0,0,.59-.3l16.37,3,36.66,9.95,13.14,11.42a1.19,1.19,0,0,0,.15.09l3.65,1.9,8.28,4.3L420,347.23a1.29,1.29,0,0,0-.53.6L416,356.7l-10.39,6.24a1.08,1.08,0,0,0-.24.18l-14.71,14.62-13.75,6.76-2-3.69-6-11.11a1.23,1.23,0,0,0-1.4-.59l-.5.12-15.6-5.32a1.23,1.23,0,0,0-.47-.63l-3-1.85L342.6,358Zm30.76,23.82-16.22-1.81,3.73-3.05,13.48,4.61Zm1.34-55.59-15.34-2.85,4-3.55a1.09,1.09,0,0,0,.23-.29,1.12,1.12,0,0,0,.15-.76l-.78-5.32,26.5-4.73a1.38,1.38,0,0,0,.4-.15l9.36-5.37h7l4.45,6-16,7.94-14.54-2.76h-.14a.73.73,0,0,0-.25,0l-15.64,5.38.49,1.35,15.46-5.32,12.51,2.37-5.14,2.55a.71.71,0,0,0-.39.59.7.7,0,0,0,.32.64l19.94,13Zm37.12,10.06-22.67-14.85,22.52-11.16a1.33,1.33,0,0,0,1,.06l8.45-3,11,20.78,3.73,13.14L427,342.27l-11.8-6.14Z" transform="translate(-206.31 -179.85)"/><path class="cls-7" d="M339.26,325.87l-6.55,20.44L342.62,358,348,361.4l.38-.59-.95-1.1,8.9-7.29,2.84-5.23-.9-13.55-8.6-1.58a.75.75,0,0,1-.57-.49L348,328l-7.69-3.68Z" transform="translate(-206.31 -179.85)"/><path class="cls-7" d="M339.87,315.17l.9,7.82,8.12,3.88a.74.74,0,0,1,.38.42l1.13,3.44,8.73,1.61a.73.73,0,0,1,.6.67l.95,14.29a.85.85,0,0,1-.09.38l-2.81,5.2,6.15,11.23,14.9,4.83a.73.73,0,0,1,.49.83l-2.21,10.91-1.45-.28-.73.38,2,3.69,13.74-6.76,14.72-14.61a1,1,0,0,1,.23-.18L416,356.67l3.49-8.87a1.24,1.24,0,0,1,.52-.59l6.36-3.66-8.28-4.3-.53,1L415,351a.76.76,0,0,1-.73.56l-2.32,0-5.53,6a.76.76,0,0,1-1,.07l-12.11-9.71-3.69-2.69L394.47,360l-1.4.44-5.46-16.67-30.44-18.92a1.12,1.12,0,0,1-.2-.18,68.28,68.28,0,0,1-4.72-6.7C351.13,317.59,345.43,316.32,339.87,315.17ZM384.47,362l-3.57-9.81,1.39-.48,3.64,10a.78.78,0,0,1,0,.37l-1.27,6.62-1.45-.27Z" transform="translate(-206.31 -179.85)"/><path class="cls-7" d="M347.52,313.17l-5.55,1c10.86,2.25,11.56,2.68,11.6,3.27.32.63,2.5,3.65,4.52,6.36l30.55,19,0,0h0l5.57,4.06,11.57,9.29,4.21-4.58-6.95-.1V350l10.63.15L416.09,340l1.44.32.53-1-3.65-1.89a.78.78,0,0,1-.15-.1l-13.14-11.42-36.67-9.94-16.36-3A1.34,1.34,0,0,1,347.52,313.17Z" transform="translate(-206.31 -179.85)"/><polygon class="cls-7" points="140.97 188.45 157.19 190.27 158.18 190.01 144.69 185.41 140.97 188.45"/><path class="cls-7" d="M348.41,360.81l-.38.59,2.93,1.85a1.23,1.23,0,0,1,.47.63L367,369.2l.49-.12a1.23,1.23,0,0,1,1.4.59l6,11.11.73-.39,2.1-10.26-14.55-4.73a.75.75,0,0,1-.42-.34L356.74,354Z" transform="translate(-206.31 -179.85)"/><path class="cls-7" d="M349.49,311.66l15.34,2.88,32.51,8.82-19.95-13.05a.73.73,0,0,1-.32-.64.72.72,0,0,1,.4-.59l5.14-2.55-12.52-2.37-15.45,5.33-.49-1.36-.43-.26a1.28,1.28,0,0,1-.23.29Z" transform="translate(-206.31 -179.85)"/><path class="cls-7" d="M353.11,301.73l.79,5.33a1.26,1.26,0,0,1-.15.76l.42.27,15.64-5.37a.74.74,0,0,1,.25-.05h.14l14.54,2.77,16-7.94-4.45-6h-6.94L380,296.88a1.56,1.56,0,0,1-.41.15Z" transform="translate(-206.31 -179.85)"/><path class="cls-7" d="M379.26,309.77l22.67,14.83,13.29,11.53,11.8,6.14-1.11-12.72-3.73-13.14-11-20.78-8.45,3a1.33,1.33,0,0,1-1-.06Z" transform="translate(-206.31 -179.85)"/><path class="cls-6" d="M380.9,352.2l3.58,9.81-1.23,6.42,1.46.27,1.26-6.62a.78.78,0,0,0,0-.37l-3.64-10Z" transform="translate(-206.31 -179.85)"/></g><g class="cls-3"><path class="cls-8" d="M346.19,326.8a1.08,1.08,0,0,1-.25,1.09l-11.17,12a1.09,1.09,0,0,1-.29.23l-7.65,4.4,5.06,3.79a1.09,1.09,0,0,1,.41,1.23,1.24,1.24,0,0,1-1.11.83l-20.6,2.08a1.29,1.29,0,0,1-.48,0l-3.55-.82-8.64,14.65a1.42,1.42,0,0,1-1.76.51l-16.06-7.23a1.15,1.15,0,0,1-.35-.22L264,345l-11.36-6.23a1.17,1.17,0,0,1-.54-.58l-3.72-8.63-7.9-4.15a1.12,1.12,0,0,1-.63-1.1l1.35-14.13a.78.78,0,0,1,0-.21l4.06-13.07a.92.92,0,0,1,.09-.23l12.34-21.33a1.39,1.39,0,0,1,1.63-.58l9.2,3,5.17-6.36a1.32,1.32,0,0,1,1.06-.48h8.45a1.38,1.38,0,0,1,.67.16l10.1,5.33,29.35,4.77a1.19,1.19,0,0,1,1.07,1.32h0l-.92,5.7,4.95,4,9.09,1.44A1.18,1.18,0,0,1,338.6,295l-1.13,9,1.27,1.74a1,1,0,0,1,.16.28Zm-2.74.09-7-20-1.07-1.49-8.24,3.6-1.28,3.46a.75.75,0,0,1-.6.48l-9.2,1.55-1,13.24,3,5.11,9.52,7.13-1,1.07-8.88-6.65-6.48,10.8a.82.82,0,0,1-.45.34l-15.54,4.62,2.23,10.06-1.55.27-2.34-10.68a.7.7,0,0,1,.52-.8l15.93-4.72,6.59-11-3-5.11a.85.85,0,0,1-.09-.38l1-14a.73.73,0,0,1,.63-.65l9.34-1.57,1.22-3.36a.7.7,0,0,1,.4-.41l8.68-3.8,1-7.64c-5.94,1.12-12,2.36-13.24,2.78a64,64,0,0,1-5.05,6.55.62.62,0,0,1-.22.17l-32.55,18.5-5.83,16.28-1.5-.42,5.17-14.45-3.95,2.63L265.67,338a.87.87,0,0,1-1.09-.08L258.66,332l-2.47,0a.8.8,0,0,1-.78-.55L252.71,321l1.53-.31,2.55,10,11.36-.15v1.41l-7.43.09,4.5,4.48,12.38-9.08,5.95-4h0l.05,0,32.7-18.52c2.16-2.64,4.49-5.59,4.83-6.21.05-.58.79-1,12.4-3.2l-5.93-.94a1.34,1.34,0,0,1-.64-.29l-17.5,3-39.2,9.73L256.2,318.06a.54.54,0,0,1-.15.09L252.14,320l-8.85,4.21,6.8,3.58a1.26,1.26,0,0,1,.56.58l3.73,8.67,11.11,6.1a.94.94,0,0,1,.25.18l15.74,14.28,14.7,6.61,2.12-3.61,6.4-10.85a1.39,1.39,0,0,1,1.5-.58l.53.12,16.69-5.2a1.15,1.15,0,0,1,.5-.61l3.15-1.82,5.81-3.34Zm-32.89,23.28,17.35-1.77-4-3-14.42,4.5Zm-1.43-54.33,16.4-2.79-4.29-3.47a1,1,0,0,1-.25-.28,1,1,0,0,1-.16-.74l.84-5.21-28.34-4.62a1.28,1.28,0,0,1-.43-.14l-10-5.25h-7.44l-4.76,5.85L287.82,287l15.55-2.7h.14a.84.84,0,0,1,.27,0l16.73,5.26-.53,1.32-16.53-5.2L290.07,288l5.5,2.49a.73.73,0,0,1,.42.58.68.68,0,0,1-.34.63l-21.33,12.75Zm-39.7,9.82,24.25-14.5-24.09-10.92a1.49,1.49,0,0,1-1,.06l-9-2.95-11.75,20.31-4,12.85-1.19,12.43,12.61-6Z" transform="translate(-206.31 -179.85)"/><path class="cls-9" d="M336.45,306.91l7,20-10.6,11.4-5.8,3.34-.4-.57,1-1.08-9.51-7.13-3-5.11,1-13.23,9.2-1.55a.78.78,0,0,0,.61-.48l1.27-3.47,8.23-3.59Z" transform="translate(-206.31 -179.85)"/><path class="cls-9" d="M335.79,296.45l-1,7.64-8.69,3.8a.73.73,0,0,0-.4.41l-1.21,3.36-9.34,1.58a.73.73,0,0,0-.64.64l-1,14a.65.65,0,0,0,.09.38l3,5.07-6.58,11L294.14,349a.69.69,0,0,0-.52.8L296,360.48l1.55-.28.78.38-2.13,3.61-14.7-6.61L265.75,343.3a1.14,1.14,0,0,0-.25-.18L254.39,337l-3.73-8.67a1.21,1.21,0,0,0-.56-.58l-6.8-3.58,8.85-4.21.57,1,2.7,10.52a.79.79,0,0,0,.78.54l2.48,0,5.92,5.9a.86.86,0,0,0,1.09.07l12.94-9.49,3.95-2.63-5.17,14.45,1.51.43,5.83-16.29L317.3,306a.91.91,0,0,0,.21-.18,67.79,67.79,0,0,0,5.06-6.54C323.76,298.82,329.86,297.57,335.79,296.45ZM288.1,342.23l3.83-9.59-1.49-.47-3.89,9.77a.56.56,0,0,0,0,.36l1.35,6.47,1.55-.26Z" transform="translate(-206.31 -179.85)"/><path class="cls-9" d="M327.62,294.49l5.93.94c-11.61,2.2-12.35,2.62-12.41,3.2-.33.62-2.66,3.57-4.83,6.21L283.65,323.4l0,0h0l-6,4-12.38,9.08-4.5-4.49,7.43-.09v-1.4l-11.36.14-2.55-10-1.53.31-.57-1,3.91-1.85.15-.1,14.06-11.16,39.2-9.72,17.5-3A1.32,1.32,0,0,0,327.62,294.49Z" transform="translate(-206.31 -179.85)"/><polygon class="cls-9" points="121.57 168.53 104.23 170.31 103.17 170.06 117.59 165.56 121.57 168.53"/><path class="cls-9" d="M326.67,341.06l.4.58-3.13,1.81a1.11,1.11,0,0,0-.5.61l-16.69,5.2-.53-.12a1.39,1.39,0,0,0-1.5.58l-6.42,10.85-.78-.37-2.25-10,15.56-4.62a.82.82,0,0,0,.45-.34l6.47-10.8Z" transform="translate(-206.31 -179.85)"/><path class="cls-9" d="M325.51,293l-16.4,2.82-34.76,8.62,21.32-12.76a.68.68,0,0,0,.35-.62.7.7,0,0,0-.43-.58L290.1,288l13.38-2.32L320,290.9l.52-1.33.46-.26a1,1,0,0,0,.25.29Z" transform="translate(-206.31 -179.85)"/><path class="cls-9" d="M321.64,283.32l-.84,5.2a1.11,1.11,0,0,0,.16.75l-.45.26-16.73-5.25a.84.84,0,0,0-.27,0h-.14l-15.55,2.7-17.13-7.76,4.76-5.85h7.42l10,5.24a1.57,1.57,0,0,0,.43.15Z" transform="translate(-206.31 -179.85)"/><path class="cls-9" d="M293.68,291.17l-24.25,14.49-14.21,11.28-12.61,6,1.19-12.43,4-12.85,11.75-20.31,9,2.95a1.49,1.49,0,0,0,1-.06Z" transform="translate(-206.31 -179.85)"/><path class="cls-8" d="M291.92,332.64l-3.82,9.59,1.31,6.28-1.55.26-1.36-6.47a.64.64,0,0,1,0-.36l3.88-9.77Z" transform="translate(-206.31 -179.85)"/></g><g class="cls-3"><path class="cls-10" d="M311.29,378.41a1.25,1.25,0,0,1-.24,1.16L300.5,392.33a1.37,1.37,0,0,1-.29.25L293,397.25l4.79,4a1.25,1.25,0,0,1,.39,1.31,1.23,1.23,0,0,1-1.05.88l-19.48,2.21a1.14,1.14,0,0,1-.45,0l-3.36-.87-8.17,15.54a1.25,1.25,0,0,1-1.66.54l-15.18-7.67a1,1,0,0,1-.33-.24l-14.91-15.19-10.74-6.61a1.25,1.25,0,0,1-.51-.62l-3.52-9.16-7.46-4.4a1.23,1.23,0,0,1-.61-1.17l1.28-15a1.7,1.7,0,0,1,0-.22l3.83-13.87.09-.24,11.67-22.63a1.26,1.26,0,0,1,1.54-.62l8.7,3.19,4.88-6.75a1.26,1.26,0,0,1,1-.51h8a1.27,1.27,0,0,1,.63.17l9.55,5.66,27.74,5.06a1.21,1.21,0,0,1,1,1.39h0l-.86,6,4.68,4.26,8.59,1.52a1.24,1.24,0,0,1,1,1.37l-1.07,9.6,1.21,1.84a1,1,0,0,1,.14.3Zm-2.59.1-6.63-21.2-1-1.58-7.79,3.82-1.21,3.68a.76.76,0,0,1-.57.51l-8.7,1.64-.9,14,2.86,5.42,9,7.56-1,1.14-8.4-7.05L278.27,398a.82.82,0,0,1-.43.35l-14.7,4.91,2.11,10.67-1.46.29-2.21-11.33a.74.74,0,0,1,.49-.85l15.06-5,6.23-11.65-2.85-5.42a1,1,0,0,1-.09-.4l1-14.82a.74.74,0,0,1,.6-.69l8.83-1.68,1.15-3.56a.7.7,0,0,1,.38-.43l8.21-4,.9-8.11c-5.61,1.19-11.38,2.51-12.51,2.95a67,67,0,0,1-4.78,6.95.7.7,0,0,1-.2.18L253.19,375.9l-5.52,17.28-1.42-.46,4.89-15.33-3.74,2.79-12.23,10.07a.75.75,0,0,1-1-.08l-5.6-6.25-2.34,0a.77.77,0,0,1-.74-.58l-2.55-11.16,1.45-.33,2.41,10.57,10.74-.15v1.49l-7,.1,4.25,4.75L246.45,379l5.62-4.21h0l0,0L283,355.12c2-2.8,4.24-5.94,4.56-6.59.05-.62.75-1.06,11.73-3.39l-5.61-1a1.28,1.28,0,0,1-.6-.31L276.57,347,239.5,357.3l-13.28,11.84-.15.1-3.69,2L214,375.67l6.43,3.79a1.29,1.29,0,0,1,.53.62l3.52,9.2L235,395.75a.87.87,0,0,1,.23.19l14.88,15.15,13.9,7,2-3.82,6.06-11.52a1.23,1.23,0,0,1,1.41-.61l.5.13,15.78-5.52a1.17,1.17,0,0,1,.48-.65l3-1.93,5.49-3.55Zm-31.1,24.7,16.4-1.88-3.76-3.16-13.64,4.77Zm-1.35-57.64,15.51-3-4.06-3.68a1.13,1.13,0,0,1-.24-.3,1.22,1.22,0,0,1-.15-.79l.79-5.52-26.79-4.91a1.07,1.07,0,0,1-.41-.15l-9.45-5.57h-7l-4.5,6.21,16.19,8.24,14.7-2.87h.14a.69.69,0,0,1,.25,0L287,338.89l-.5,1.41-15.62-5.52-12.65,2.45,5.19,2.64a.77.77,0,0,1,.4.62.74.74,0,0,1-.32.66l-20.17,13.53ZM238.72,356l22.92-15.39L238.87,329a1.23,1.23,0,0,1-1,.06L229.36,326,218.25,347.5l-3.76,13.63-1.13,13.18L225.29,368Z" transform="translate(-206.31 -179.85)"/><path class="cls-11" d="M302.08,357.31l6.63,21.2-10,12.09-5.49,3.55-.38-.61,1-1.14-9-7.56-2.86-5.43.9-14,8.7-1.64a.74.74,0,0,0,.57-.51l1.21-3.68,7.77-3.81Z" transform="translate(-206.31 -179.85)"/><path class="cls-11" d="M301.46,346.22l-.9,8.1-8.22,4a.71.71,0,0,0-.37.44l-1.15,3.56L282,364a.75.75,0,0,0-.6.69l-1,14.82a.78.78,0,0,0,.08.4l2.85,5.38L277.14,397l-15.06,5a.75.75,0,0,0-.5.85l2.24,11.31,1.46-.29.74.4-2,3.83-13.9-7-14.87-15.15a1,1,0,0,0-.23-.19l-10.51-6.48-3.53-9.2a1.22,1.22,0,0,0-.53-.61l-6.42-3.8,8.36-4.46.54,1.05,2.55,11.16a.77.77,0,0,0,.74.58l2.34,0,5.6,6.26a.75.75,0,0,0,1,.08l12.24-10.07,3.73-2.79-4.89,15.33,1.43.45,5.51-17.28L284,356.29a.91.91,0,0,0,.21-.18,69,69,0,0,0,4.77-6.95C290.08,348.72,295.85,347.41,301.46,346.22Zm-45.09,48.57L260,384.61l-1.41-.5-3.68,10.37a.81.81,0,0,0,0,.38l1.28,6.86,1.47-.28Z" transform="translate(-206.31 -179.85)"/><path class="cls-11" d="M293.73,344.14l5.61,1c-11,2.33-11.68,2.77-11.73,3.39-.32.65-2.52,3.79-4.57,6.59l-30.88,19.69,0,0h0l-5.63,4.21-11.7,9.63-4.25-4.76,7-.09v-1.49l-10.74.15-2.41-10.57-1.45.33-.54-1.05,3.69-2a.49.49,0,0,0,.15-.1l13.29-11.84L276.62,347l16.54-3.15A1.26,1.26,0,0,0,293.73,344.14Z" transform="translate(-206.31 -179.85)"/><polygon class="cls-11" points="87.67 221.46 71.27 223.34 70.27 223.08 83.91 218.3 87.67 221.46"/><path class="cls-11" d="M292.83,393.54l.38.62-3,1.92a1.2,1.2,0,0,0-.47.65L274,402.24l-.5-.12a1.22,1.22,0,0,0-1.41.61L266,414.25l-.73-.4-2.14-10.64,14.72-4.91a.77.77,0,0,0,.42-.35l6.12-11.46Z" transform="translate(-206.31 -179.85)"/><path class="cls-11" d="M291.74,342.58l-15.51,3-32.86,9.14,20.16-13.54a.74.74,0,0,0,.33-.66.76.76,0,0,0-.41-.61l-5.19-2.64,12.65-2.46,15.63,5.52.49-1.4.43-.28a.89.89,0,0,0,.24.3Z" transform="translate(-206.31 -179.85)"/><path class="cls-11" d="M288.08,332.28l-.8,5.52a1.27,1.27,0,0,0,.16.79l-.43.28-15.82-5.57a.69.69,0,0,0-.25,0h-.14l-14.7,2.87-16.19-8.24,4.5-6.21h7l9.46,5.57a1.27,1.27,0,0,0,.41.15Z" transform="translate(-206.31 -179.85)"/><path class="cls-11" d="M261.64,340.62,238.72,356l-13.43,12-11.93,6.36,1.13-13.18,3.76-13.63L229.36,326l8.55,3.13a1.23,1.23,0,0,0,1-.06Z" transform="translate(-206.31 -179.85)"/><path class="cls-10" d="M260,384.61l-3.61,10.18,1.24,6.65-1.47.28-1.28-6.86a.81.81,0,0,1,0-.38l3.68-10.37Z" transform="translate(-206.31 -179.85)"/></g><g class="cls-3"><path class="cls-12" d="M372.6,442.57a1.42,1.42,0,0,1-.23,1.23l-10.49,13.49a1.19,1.19,0,0,1-.28.27l-7.18,4.93,4.75,4.25a1.38,1.38,0,0,1,.39,1.38,1.22,1.22,0,0,1-1,.93l-19.35,2.34a1.19,1.19,0,0,1-.46,0l-3.33-.92-8.12,16.45a1.21,1.21,0,0,1-1.65.56l-15.09-8.11a1.11,1.11,0,0,1-.32-.25l-14.82-16.07-10.66-7a1.16,1.16,0,0,1-.51-.64l-3.5-9.7-7.41-4.65a1.33,1.33,0,0,1-.6-1.24L274,424a1,1,0,0,1,0-.24l3.81-14.67.09-.25,11.6-23.94a1.2,1.2,0,0,1,1.52-.65l8.65,3.37,4.85-7.14a1.21,1.21,0,0,1,1-.54h7.94a1.21,1.21,0,0,1,.63.18l9.48,6,27.57,5.36a1.27,1.27,0,0,1,1,1.47h0l-.86,6.4,4.65,4.5,8.54,1.62a1.28,1.28,0,0,1,1,1.44L364.41,417l1.2,1.95a1.15,1.15,0,0,1,.14.32Zm-2.57.1-6.58-22.41-1-1.68-7.74,4-1.2,3.89a.76.76,0,0,1-.57.54l-8.64,1.74-.9,14.85,2.85,5.73,8.94,8-1,1.21-8.35-7.47-6.08,12.12a.74.74,0,0,1-.42.38l-14.6,5.19,2.1,11.29-1.46.3-2.2-12a.8.8,0,0,1,.49-.9l15-5.3,6.18-12.32L342,444.15a.85.85,0,0,1-.08-.42l.95-15.68a.76.76,0,0,1,.6-.72l8.77-1.77,1.14-3.77a.73.73,0,0,1,.38-.46l8.15-4.26.9-8.58c-5.58,1.26-11.31,2.65-12.43,3.12a74.39,74.39,0,0,1-4.75,7.35.61.61,0,0,1-.2.19l-30.57,20.76-5.48,18.28-1.41-.48,4.85-16.22-3.71,2.95L297,455.09a.71.71,0,0,1-1-.08l-5.56-6.62-2.33,0a.77.77,0,0,1-.73-.61L284.79,436l1.45-.35,2.39,11.18,10.67-.16v1.58l-7,.1,4.23,5,11.63-10.19,5.59-4.45h0l0,0,30.71-20.78c2-3,4.22-6.27,4.54-7,.05-.65.75-1.12,11.65-3.58l-5.57-1.06a1.23,1.23,0,0,1-.6-.33l-16.43,3.34-36.83,10.91-13.2,12.52-.14.11L284.27,435,276,439.67l6.39,4a1.36,1.36,0,0,1,.53.65l3.5,9.73,10.44,6.85a1.43,1.43,0,0,1,.23.2l14.78,16,13.81,7.41,2-4,6-12.18a1.2,1.2,0,0,1,1.41-.65l.5.13L351.21,462a1.26,1.26,0,0,1,.48-.69l2.95-2,5.46-3.75ZM339.14,468.8l16.29-2-3.74-3.34-13.55,5Zm-1.35-61,15.41-3.13-4-3.89a1.08,1.08,0,0,1-.24-.32,1.32,1.32,0,0,1-.15-.83l.79-5.84L323,388.63a1.29,1.29,0,0,1-.41-.16l-9.39-5.89h-7l-4.48,6.57,16.09,8.71,14.61-3h.14a.74.74,0,0,1,.25.05l15.71,5.9-.49,1.49-15.53-5.84L319.89,399l5.16,2.8a.8.8,0,0,1,.4.65.78.78,0,0,1-.32.7l-20,14.31Zm-37.28,11,22.77-16.28-22.63-12.25a1.13,1.13,0,0,1-.95.06l-8.5-3.3-11,22.78-3.74,14.42-1.12,13.95,11.85-6.74Z" transform="translate(-206.31 -179.85)"/><path class="cls-13" d="M363.45,420.26,370,442.67l-10,12.79-5.45,3.76-.38-.65,1-1.21-8.94-8-2.85-5.74.9-14.85L353,427a.75.75,0,0,0,.57-.54l1.2-3.89,7.72-4Z" transform="translate(-206.31 -179.85)"/><path class="cls-13" d="M362.84,408.52l-.9,8.57-8.16,4.26a.8.8,0,0,0-.38.46l-1.13,3.77-8.78,1.77a.79.79,0,0,0-.6.73l-.95,15.68a1,1,0,0,0,.09.42l2.83,5.69-6.19,12.33-15,5.3a.8.8,0,0,0-.49.9l2.22,12,1.45-.3.74.42-2,4-13.81-7.42-14.77-16a.91.91,0,0,0-.24-.2L286.37,454l-3.5-9.73a1.3,1.3,0,0,0-.52-.65l-6.39-4,8.31-4.72.54,1.11,2.53,11.81a.77.77,0,0,0,.73.61l2.33,0L296,455a.72.72,0,0,0,1,.08l12.15-10.65,3.71-2.95L308,457.73l1.41.48,5.48-18.28,30.57-20.76a.76.76,0,0,0,.21-.19,73,73,0,0,0,4.74-7.35C351.53,411.17,357.26,409.77,362.84,408.52ZM318,459.89l3.59-10.76-1.4-.53-3.65,11a.94.94,0,0,0,0,.41l1.27,7.25,1.46-.29Z" transform="translate(-206.31 -179.85)"/><path class="cls-13" d="M355.16,406.32l5.57,1.06c-10.9,2.46-11.61,2.93-11.65,3.58-.32.7-2.51,4-4.54,7l-30.68,20.83,0,0h0l-5.59,4.46L296.6,453.45l-4.23-5,7-.1v-1.58l-10.67.17-2.4-11.19-1.44.35-.53-1.11,3.67-2.08a.45.45,0,0,0,.14-.1l13.21-12.53,36.82-10.91L354.59,406A1.21,1.21,0,0,0,355.16,406.32Z" transform="translate(-206.31 -179.85)"/><polygon class="cls-13" points="149.1 286.94 132.81 288.93 131.81 288.65 145.36 283.6 149.1 286.94"/><path class="cls-13" d="M354.27,458.58l.37.65-2.94,2a1.28,1.28,0,0,0-.47.68l-15.67,5.84-.5-.14a1.21,1.21,0,0,0-1.41.65l-6,12.18-.73-.42-2.12-11.25,14.62-5.19a.74.74,0,0,0,.42-.38l6.08-12.12Z" transform="translate(-206.31 -179.85)"/><path class="cls-13" d="M353.18,404.67l-15.41,3.16-32.65,9.67,20-14.32a.8.8,0,0,0-.07-1.34l-5.16-2.8,12.57-2.59L348,402.28l.49-1.48.43-.29a1,1,0,0,0,.24.31Z" transform="translate(-206.31 -179.85)"/><path class="cls-13" d="M349.54,393.78l-.79,5.84a1.47,1.47,0,0,0,.15.83l-.42.3-15.71-5.89a.74.74,0,0,0-.25-.05h-.14l-14.61,3-16.09-8.71,4.48-6.57h7l9.4,5.88a1.23,1.23,0,0,0,.41.17Z" transform="translate(-206.31 -179.85)"/><path class="cls-13" d="M323.28,402.59l-22.77,16.27L287.16,431.5l-11.85,6.74,1.12-13.95,3.74-14.42,11-22.78,8.5,3.3a1.13,1.13,0,0,0,.95-.06Z" transform="translate(-206.31 -179.85)"/><path class="cls-12" d="M321.63,449.13,318,459.89l1.23,7-1.46.29L316.54,460a.94.94,0,0,1,0-.41l3.65-11Z" transform="translate(-206.31 -179.85)"/></g><g class="cls-3"><polygon class="cls-14" points="80.05 317.52 65.64 319.04 64.77 318.83 76.74 314.95 80.05 317.52"/><path class="cls-14" d="M285.35,491.07l.33.49-2.59,1.56a1,1,0,0,0-.42.53l-13.86,4.47-.44-.1a1.13,1.13,0,0,0-1.25.5l-5.33,9.34-.65-.33-1.87-8.63,12.93-4a.68.68,0,0,0,.37-.29l5.38-9.3Z" transform="translate(-206.31 -179.85)"/><path class="cls-14" d="M280.48,445.86a.93.93,0,0,0,.13.65l-.38.22-13.89-4.52a.83.83,0,0,0-.22,0H266l-12.92,2.33-14.22-6.68,3.95-5H249l8.31,4.52a1.09,1.09,0,0,0,.36.12l23.54,4Z" transform="translate(-206.31 -179.85)"/><path class="cls-14" d="M280.82,446.75l3.57,3-13.62,2.43-28.87,7.41,17.71-11a.57.57,0,0,0,.28-.54.61.61,0,0,0-.35-.5L255,445.42l11.11-2,13.73,4.48.43-1.14.38-.22A1.19,1.19,0,0,0,280.82,446.75Z" transform="translate(-206.31 -179.85)"/><path class="cls-14" d="M258,448.15l-20.13,12.46L226,470.31l-10.48,5.16,1-10.69,3.31-11,9.76-17.47,7.51,2.53a1.19,1.19,0,0,0,.85-.05Z" transform="translate(-206.31 -179.85)"/><path class="cls-14" d="M286.19,490.14l-7.9-6.13-2.52-4.4.8-11.38,7.64-1.34a.64.64,0,0,0,.5-.41l1.06-3,6.83-3.1.9,1.29,5.82,17.18-8.83,9.81-4.82,2.88-.33-.5Z" transform="translate(-206.31 -179.85)"/><path class="cls-14" d="M292.93,452.69l-.79,6.57-7.22,3.27a.6.6,0,0,0-.33.35l-1,2.89-7.76,1.36a.6.6,0,0,0-.52.55l-.85,12a.62.62,0,0,0,.08.33l2.5,4.36-5.47,9.45-13.23,4.06a.61.61,0,0,0-.43.7l2,9.17,1.29-.23.64.32L260,511l-12.21-5.68L234.76,493a.8.8,0,0,0-.21-.15l-9.23-5.25-3.1-7.46a1,1,0,0,0-.46-.5l-5.65-3.08,7.35-3.62.47.85,2.25,9.05a.65.65,0,0,0,.64.47l2.06,0,4.92,5.08a.69.69,0,0,0,.9.06l10.75-8.16,3.28-2.27-4.29,12.44,1.25.36,4.84-14,27-15.91a.65.65,0,0,0,.18-.15,56.09,56.09,0,0,0,4.19-5.64C282.93,454.72,288,453.65,292.93,452.69Zm-39.61,39.39,3.18-8.26-1.24-.4-3.23,8.4a.58.58,0,0,0,0,.32l1.13,5.56,1.29-.23Z" transform="translate(-206.31 -179.85)"/><path class="cls-14" d="M223.46,473l3.24-1.6.13-.07,11.67-9.61,32.57-8.36,14.53-2.56a1,1,0,0,0,.53.25l4.93.81c-9.65,1.89-10.27,2.25-10.31,2.75-.28.53-2.21,3.07-4,5.35l-27.13,16,0,0h0l-4.94,3.41-10.28,7.81-3.74-3.86,6.17-.07V482l-9.43.12-2.12-8.57-1.28.27Z" transform="translate(-206.31 -179.85)"/><path class="cls-15" d="M253.32,492.08l1.09,5.39-1.29.23L252,492.14a.58.58,0,0,1,0-.32l3.22-8.4,1.24.4Z" transform="translate(-206.31 -179.85)"/><path class="cls-16" d="M283.05,494.8l-12,3.88.9.22,14.41-1.52Zm-23.51-47.27a.61.61,0,0,1,.35.5.57.57,0,0,1-.28.54l-17.71,11,28.87-7.38,13.62-2.4-3.57-3a1,1,0,0,1-.21-.24.93.93,0,0,1-.13-.65l.7-4.47-23.54-4a1.09,1.09,0,0,1-.36-.12L249,432.8h-6.16l-3.95,5,14.22,6.68L266,442.19h.12a.83.83,0,0,1,.22,0l13.89,4.53-.43,1.14-13.73-4.48-11.11,2ZM226,470.33l11.81-9.7L258,448.15l-20-9.39a1.19,1.19,0,0,1-.85.05l-7.51-2.54-9.76,17.47-3.31,11.06-1,10.69Zm2.87,13-2.06,0a.66.66,0,0,1-.65-.47l-2.24-9.05,1.27-.27,2.12,8.58,9.44-.13v1.21l-6.17.08,3.73,3.86,10.29-7.81,4.94-3.42h0l0,0,27.14-16c1.8-2.28,3.74-4.82,4-5.35,0-.5.66-.86,10.3-2.75l-4.93-.81a1.08,1.08,0,0,1-.53-.25l-14.53,2.56-32.56,8.36-11.67,9.61-.13.07-3.24,1.6-7.35,3.62,5.64,3.08a1,1,0,0,1,.47.5l3.09,7.46,9.23,5.25a.8.8,0,0,1,.21.15l13.07,12.29L260,511l1.76-3.1,5.32-9.34a1.13,1.13,0,0,1,1.24-.5l.44.11,13.86-4.48a1,1,0,0,1,.42-.52l2.61-1.57,4.83-2.87,8.78-9.81-5.82-17.19-.9-1.28-6.84,3.07-1.06,3a.63.63,0,0,1-.5.41l-7.64,1.34-.8,11.38,2.52,4.4,7.91,6.13-.85.93-7.38-5.73-5.38,9.3a.68.68,0,0,1-.37.29l-12.91,4,1.85,8.66-1.28.23-1.95-9.18a.62.62,0,0,1,.44-.7l13.23-4.06L277,484.4,274.52,480a.62.62,0,0,1-.07-.33l.84-12a.63.63,0,0,1,.53-.55l7.76-1.36,1-2.89a.65.65,0,0,1,.34-.35l7.21-3.27.79-6.57c-4.93,1-10,2-11,2.39a55.4,55.4,0,0,1-4.19,5.63.84.84,0,0,1-.18.15l-27,15.92-4.84,14-1.25-.37L248.72,478l-3.28,2.26-10.75,8.17a.7.7,0,0,1-.9-.07Zm72.68-4.5a.93.93,0,0,1-.21.94l-9.27,10.35a1,1,0,0,1-.25.21l-6.35,3.78,4.21,3.26a1,1,0,0,1,.34,1.06,1.05,1.05,0,0,1-.92.71L272,500.89a.9.9,0,0,1-.4,0l-3-.7-7.18,12.6a1.15,1.15,0,0,1-1.46.44L246.67,507a1.32,1.32,0,0,1-.29-.19l-13.1-12.33-9.43-5.36a1.07,1.07,0,0,1-.45-.49l-3.09-7.43-6.55-3.57a1,1,0,0,1-.53-.95l1.12-12.16a1.13,1.13,0,0,1,0-.18l3.37-11.25a1.54,1.54,0,0,1,.08-.19l10.25-18.35a1.13,1.13,0,0,1,1.35-.5l7.64,2.58,4.3-5.47a1.11,1.11,0,0,1,.88-.42h7a1.18,1.18,0,0,1,.55.14l8.39,4.59,24.37,4.1a1,1,0,0,1,.89,1.13h0l-.76,4.9,4.11,3.45,7.55,1.24a1,1,0,0,1,.89,1.1l-.94,7.79,1.06,1.49a1.19,1.19,0,0,1,.13.25Z" transform="translate(-206.31 -179.85)"/></g><path class="cls-1" d="M418.93,339.36c.07,18.87-.35,37.15,1.26,56.16-7.67,0-14.73.11-21.78,0a7.57,7.57,0,0,0-6.33,2.59C373.21,418.15,348,425.73,319,424.65c-25.76-1-47.77-9.36-64-27.39-1.61-1.79-3.47-1.75-5.59-1.74H226.22V339.36c7.85,0,15.5-.1,23.14.05a7.48,7.48,0,0,0,6.33-2.52c18.25-19.79,42.92-27.38,71.23-26.88,22.9.41,44,6.53,59.52,21.52,6.78,6.53,13.42,8.75,22.66,7.87C412.11,339.11,415.2,339.36,418.93,339.36Z" transform="translate(-206.31 -179.85)"/><text x="-206.31" y="-179.85"/><text class="cls-17" transform="translate(54.57 195.09) scale(0.74 1)">Sh<tspan class="cls-18" x="33.77" y="0">a</tspan><tspan class="cls-19" x="49.57" y="0">k</tspan><tspan x="64.21" y="0">e It Up</tspan></text></g></svg>