<svg height='100px' width='100px'  fill="#000000" xmlns="http://www.w3.org/2000/svg" xmlns:xlink="http://www.w3.org/1999/xlink" version="1.1" x="0px" y="0px" viewBox="0 0 100 100" enable-background="new 0 0 100 100" xml:space="preserve"><g><path d="M88.697,51.034C91,39.641,91,39.352,91,39.229c0-0.283,0-0.526-7.139-16.267c-0.194-0.428-0.658-0.659-1.12-0.565   l-5.566,1.194L64.43,20.15l-7.726-3.457l-5.216-3.51c-0.766-0.85-1.643-1.867-1.824-2.146c-0.166-0.36-0.529-0.593-0.939-0.593   h-0.001c-0.509,0-1.872,0.524-9.916,4c-2.109,0.912-4.289,1.854-4.602,1.953l0.001,0.004c-0.624,0.236-2.361,1.968-14.091,14.605   l-6.643,4.602c-0.198,0.137-0.339,0.342-0.399,0.574l-2.799,10.983c-0.014,0.056-0.023,0.11-0.028,0.167L9.003,62.771   c-0.018,0.23,0.043,0.459,0.174,0.648l2.072,3.008c0.152,0.221,0.386,0.371,0.651,0.417l6.103,1.065l4.246,6.412l-0.088,1.746   c-0.013,0.266,0.08,0.524,0.258,0.722l9.015,9.946c0.125,0.139,0.285,0.238,0.464,0.291l5.39,1.554   c0.39,0.112,0.809-0.021,1.062-0.34l5.302-6.697l4.193,3.146c0.071,0.054,0.151,0.098,0.235,0.131l11.918,4.666   c0.188,0.072,0.391,0.087,0.585,0.043l15.996-3.614l9.362-0.824c0.293-0.024,0.562-0.18,0.73-0.421   c0.169-0.24,0.223-0.545,0.148-0.83l-2.293-8.676l2.24-5.068c0.174-0.394,0.075-0.855-0.244-1.146l-4.926-4.449l1.59-5.513   c0.056-0.196,0.051-0.405-0.016-0.6L81.814,54.4l6.289-2.643C88.409,51.629,88.632,51.357,88.697,51.034z M11.025,62.579   l0.863-10.706l1.992,7.002c0.01,0.036,0.023,0.068,0.039,0.102l3.345,6.775l-4.607-0.805L11.025,62.579z M50.086,14.616   c0.043,0.047,0.092,0.085,0.142,0.123v12.157c0,0.069,0.012,0.138,0.034,0.201l6.841,19.275l0.797,3.213l-3.615,1.855   c-0.057,0.028-0.108,0.066-0.153,0.111L38.486,67.407c-0.153,0.155-0.21,0.381-0.149,0.59l1.242,4.249l1.152-0.337l-1.144-3.91   l15.331-15.535l2.348-1.205l-0.252,1.091l11.459,2.662l11.002,9.737c-0.022,0.306,0.088,0.606,0.319,0.817l4.853,4.383   l-1.756,3.972L67.76,62.991l-0.703,0.973l15.426,11.144c0.004,0.076,0.002,0.153,0.021,0.229l2.079,7.868l-8.247,0.726   c-0.045,0.004-0.089,0.012-0.133,0.021l-15.764,3.563l-11.505-4.505l-4.539-3.405L46.5,75.13l-1.086-0.511l-2.152,4.574   c-0.219,0.048-0.426,0.156-0.575,0.346l-5.489,6.936l-4.473-1.291l-8.545-9.429l0.055-1.11h18.199c0.07,0,0.141-0.013,0.207-0.037   l9.519-3.494l1.814,7.73c0.063,0.272,0.307,0.463,0.584,0.463c0.006,0,0.012,0,0.021,0l11.71-0.414l-0.043-1.199L55.029,78.09   l-1.856-7.91c-0.039-0.168-0.149-0.31-0.3-0.392c-0.088-0.048-0.186-0.072-0.284-0.072c-0.069,0-0.14,0.013-0.207,0.037   l-10.055,3.692H24.065l-4.633-6.997c-0.152-0.229-0.391-0.386-0.662-0.433l-0.042-0.008l-3.709-7.514l-2.856-10.039l0.071-0.875   l2.687-10.538l3.871-2.681l-2.381,4.701c-0.054,0.105-0.076,0.226-0.061,0.345l1.242,9.946l1.191-0.147l-1.22-9.767l3.299-6.514   l0.483-0.334c0.06-0.041,0.114-0.089,0.164-0.142c4.683-5.046,12.287-13.166,13.415-14.185c0.489-0.176,1.61-0.658,4.677-1.983   c2.772-1.198,7.163-3.095,8.742-3.681C48.668,13.012,49.201,13.637,50.086,14.616z M88.979,39.343   c-0.166,0.944-1.313,6.679-2.14,10.779l-2.399,1.008l-7.422-10.688c-0.045-0.063-0.101-0.116-0.164-0.158L63.9,31.785l-4.527-3.396   c-0.105-0.078-0.232-0.119-0.359-0.119c-0.093,0-0.187,0.021-0.272,0.064c-0.204,0.104-0.331,0.314-0.327,0.543l0.104,7.148   l1.199-0.019l-0.086-5.927l3.581,2.686L76.1,41.221l7.209,10.383l-2.707,1.139l-8.33-13.721l-1.024,0.623l8.397,13.832   c-0.084,0.213-0.104,0.453-0.023,0.687l1.557,4.573l-1.359,4.716l-10.664-9.438c-0.074-0.066-0.164-0.113-0.262-0.136   l-11.518-2.675l1.496-0.767c0.248-0.127,0.376-0.408,0.309-0.679l-0.93-3.729l-6.823-19.233V15.555l3.917,2.635l-3.213,8.602   l1.125,0.42l3.159-8.455l7.269,3.251c0.047,0.021,0.096,0.038,0.146,0.052l13.057,3.524c0.153,0.041,0.315,0.045,0.471,0.013   l5.016-1.076C84.922,30.146,88.459,38.016,88.979,39.343z"></path><path d="M29.915,38.71l14.194-5.543l-0.438-1.118l-14.45,5.645c-0.162,0.063-0.289,0.195-0.348,0.359l-4.291,12.195l1.133,0.398   L29.915,38.71z"></path></g></svg>