<svg height='100px' width='100px'  fill="#000000" xmlns="http://www.w3.org/2000/svg" viewBox="0 0 100 100" x="0px" y="0px"><title>trash</title><g data-name="Layer 2"><path d="M71.56,50.49l.68-7.33L67.51,39,62.3,27.4,49.72,29,48,25.92,27.2,39.65,33,46.78l-1.68.54,1.16,5L25,57.81,37.21,72.36l.41,1.72,9.29-1.2h6.93l17.41-8.14L75,50.08ZM44.8,69.62l1.25-10.4a7.86,7.86,0,0,0,2.25-8.43L60,46.28l4.82,8.29,5.84-.7-2.19,8.57L53.11,69.62ZM29.71,58.37l3.58-2.65,2.27,9.61ZM46.85,30.55l3.5,6.1-7,6.85-7.06,2.23L32,40.39Zm2,.2Zm11.48.18,2,4.46-7.14,3.15-3.85-6.46Zm7.94,20-1.69.2-5.15-8.84-2.67,1-2.09-1.83,5.8-2.56,6.39,5.63ZM35.17,49.51l10-3.14,5.73-5.66,4.46,3.89L44,49l.72,1.57C46.68,54.8,44,56.76,43.66,57l-.66.41L41.44,70.3l-1.33.17L37.54,59.55Z"></path></g></svg>