<svg className="wad-wobble" alt="jar" height='100px' width='100px'  fill="pink" id="Layer_2" data-name="Layer 2" xmlns="http://www.w3.org/2000/svg" version="1.1" x="5px" y="260px" viewBox="0 0 100 100" enableBackground="new 0 0 100 100" ><g><path d="M19.298,66.967l8.628,5.328l11.983,12.24c0.077,0.078,0.166,0.145,0.264,0.193l12.199,6.164   c0.489,0.246,1.083,0.055,1.337-0.429l6.564-12.524l2.699,0.701c0.119,0.029,0.243,0.039,0.365,0.025l15.665-1.798   c0.397-0.046,0.728-0.322,0.843-0.705c0.116-0.383-0.007-0.797-0.313-1.054l-3.846-3.237l5.801-3.759   c0.086-0.057,0.162-0.124,0.228-0.203l8.478-10.275c0.216-0.261,0.285-0.611,0.185-0.934L84.855,38.98   c-0.026-0.086-0.064-0.168-0.113-0.244l-0.965-1.5l0.857-7.736c0.059-0.523-0.299-1.003-0.818-1.095l-6.902-1.232l-3.764-3.428   l0.697-4.872c0.076-0.531-0.283-1.028-0.811-1.125L50.74,13.673l-7.681-4.534C42.904,9.048,42.729,9,42.55,9h-6.418   c-0.321,0-0.622,0.154-0.811,0.415l-3.924,5.424l-6.992-2.565c-0.471-0.174-1.003,0.031-1.234,0.48l-9.375,18.232   c-0.031,0.063-0.055,0.127-0.074,0.193l-3.081,11.172c-0.016,0.06-0.027,0.121-0.032,0.182L9.583,54.602   c-0.034,0.383,0.156,0.75,0.486,0.945l5.991,3.547l2.83,7.381C18.968,66.68,19.111,66.852,19.298,66.967z M31.419,16.977   c0.259,0.096,0.533,0.065,0.771-0.047l18.298,9.323L32.07,38.652l-10.795,9.634l-9.585,5.125l0.903-10.616l3.029-10.984   l8.924-17.355L31.419,16.977z M74.669,27.836l-12.458,2.378l-26.408,7.365l16.2-10.899c0.177-0.119,0.276-0.322,0.265-0.535   c-0.014-0.213-0.138-0.401-0.326-0.498l-4.173-2.127l10.146-1.982l12.557,4.441l0.399-1.131l-12.71-4.496   c-0.064-0.023-0.133-0.035-0.2-0.035c-0.038,0-0.077,0.004-0.114,0.011l-11.812,2.31l-13.013-6.631L36.642,11h5.634l7.6,4.486   c0.101,0.06,0.213,0.102,0.329,0.123l21.525,3.934l-0.637,4.443c-0.047,0.328,0.072,0.658,0.316,0.882L74.669,27.836z    M62.49,76.448L73.448,72.6l3.022,2.545l-13.175,1.513L62.49,76.448z M20.636,65.441l-2.834-7.39   c-0.081-0.21-0.231-0.387-0.424-0.502l-5.164-3.058l9.691-5.182c0.042-0.022,0.081-0.051,0.116-0.082L32.7,39.689l29.784-8.309   l13.293-2.535c0.141,0.127,0.313,0.213,0.498,0.245l4.504,0.804c-8.819,1.879-9.387,2.241-9.424,2.731   c-0.256,0.528-2.023,3.054-3.67,5.31L42.87,53.798c-0.013,0.009-0.021,0.022-0.033,0.031l-0.004-0.005l-4.525,3.393l-9.406,7.76   l-3.417-3.832l5.646-0.08l-0.018-1.199l-8.633,0.121l-1.944-8.514l-1.17,0.268l2.053,8.988c0.064,0.275,0.333,0.472,0.594,0.465   l1.883-0.025l4.494,5.039c0.217,0.24,0.582,0.268,0.83,0.063l9.83-8.109l3.003-2.251l-3.927,12.337l1.143,0.363l4.43-13.916   l24.729-15.808c0.063-0.04,0.117-0.091,0.161-0.151c2.703-3.697,3.563-5.043,3.838-5.594c0.911-0.357,5.544-1.421,10.056-2.377   l-0.725,6.532l-6.597,3.242c-0.147,0.071-0.257,0.2-0.308,0.354l-0.92,2.869l-7.096,1.348c-0.268,0.051-0.468,0.277-0.486,0.551   l-0.77,11.943c-0.007,0.109,0.016,0.22,0.068,0.317l2.289,4.341l-5.004,9.396l-12.098,4.033c-0.287,0.097-0.458,0.391-0.399,0.687   l1.795,9.116l1.179-0.232l-1.694-8.598l11.824-3.941c0.146-0.05,0.268-0.152,0.34-0.287l4.917-9.234l6.753,5.686l0.772-0.918   l-7.231-6.09l-2.304-4.368l0.729-11.31l6.988-1.327c0.217-0.041,0.393-0.197,0.459-0.406l0.95-2.966l6.249-3.07l0.82,1.273   l5.32,17.072l-8.035,9.74l-6.805,4.41c-0.191,0.123-0.306,0.316-0.378,0.527l-12.682,4.453l-0.399-0.104   c-0.449-0.121-0.921,0.092-1.137,0.502l-6.477,12.355l-11.172-5.645L29.269,70.809c-0.056-0.058-0.12-0.108-0.189-0.151   L20.636,65.441z"></path><path d="M45.068,69.641c-0.035,0.101-0.044,0.207-0.024,0.311l1.026,5.52l1.18-0.22l-0.997-5.362l2.899-8.197l-1.131-0.399   L45.068,69.641z"></path></g></svg>